P2
#my image
4 5
255
234 23 12 3 45 22 11 22 11 22
1 2 3 4 5 6 7 8 9 10 
